# xmcd CD database file
#
# Track frame offsets:
#	150
#	51940
#	92036
#	168060
#	199020
#	251729
#	288010
#
# Disc length: 4137 seconds
#
# Revision: 0
# Processed by: cddbd v1.5.1PL2 Copyright (c) Steve Scherf et al.
# Submitted via: CDex 1.51
#
DISCID=57102707
DTITLE=Joseph Holbrooke Trio - The Moat Recordings
DYEAR=1964
DGENRE=Jazz
TTITLE0=Orchard
TTITLE1=Condensation
TTITLE2=Crookesmoor
TTITLE3=Campo
TTITLE4=Fermata
TTITLE5=Radio Bossa
TTITLE6=Mappin
EXTD=YEAR: 1964
EXTT0=
EXTT1=
EXTT2=
EXTT3=
EXTT4=
EXTT5=
EXTT6=
PLAYORDER=
